HIERARCHY
ROOT Hips
{
	OFFSET 0.00 0.00 0.00
	CHANNELS 6 Xposition Yposition Zposition Xrotation Yrotation Zrotation
	JOINT Spine
	{
		OFFSET 0.00000 7.50895 0.00000
		CHANNELS 3 Xrotation Yrotation Zrotation
		JOINT Head
		{
			OFFSET 0.00000 13.86115 0.00000
			CHANNELS 3 Xrotation Yrotation Zrotation
			End Site
			{
				OFFSET 0.00000 4.52755 0.00000
			}
		}
		JOINT LeftShoulder
		{
			OFFSET 0.00000 8.20478 0.00000
			CHANNELS 3 Xrotation Yrotation Zrotation
			JOINT LeftArm
			{
				OFFSET 6.63596 0.00000 0.00000
				CHANNELS 3 Xrotation Yrotation Zrotation
				JOINT LeftForeArm
				{
					OFFSET 10.27422 0.00000 0.00000
					CHANNELS 3 Yrotation Zrotation Xrotation
					JOINT LeftHand
					{
						OFFSET 8.52215 0.00000 0.00000
						CHANNELS 3 Xrotation Yrotation Zrotation
						JOINT LeftHandThumb1
						{
							OFFSET 0.00000 0.00000 0.00000
							CHANNELS 3 Xrotation Zrotation Yrotation
							End Site
							{
								OFFSET 0.00000 0.00000 3.93700
							}
						}
						End Site
						{
							OFFSET 3.93700 0.00000 0.00000
						}
					}
				}
			}
		}
		JOINT RightShoulder
		{
			OFFSET 0.00000 8.20478 0.00000
			CHANNELS 3 Xrotation Yrotation Zrotation
			JOINT RightArm
			{
				OFFSET -6.63596 0.00000 0.00000
				CHANNELS 3 Xrotation Yrotation Zrotation
				JOINT RightForeArm
				{
					OFFSET -10.27422 0.00000 0.00000
					CHANNELS 3 Yrotation Zrotation Xrotation
					JOINT RightHand
					{
						OFFSET -8.52215 0.00000 0.00000
						CHANNELS 3 Xrotation Yrotation Zrotation
						JOINT RightHandThumb1
						{
							OFFSET 0.00000 0.00000 0.00000
							CHANNELS 3 Xrotation Zrotation Yrotation
							End Site
							{
								OFFSET 0.00000 0.00000 3.93700
							}
						}
						End Site
						{
							OFFSET -3.93700 0.00000 0.00000
						}
					}
				}
			}
		}
	}
	JOINT LeftUpLeg
	{
		OFFSET 3.00056 0.00000 0.00000
		CHANNELS 3 Xrotation Yrotation Zrotation
		JOINT LeftLeg
		{
			OFFSET 0.00000 -16.49085 0.00000
			CHANNELS 3 Xrotation Yrotation Zrotation
			JOINT LeftFoot
			{
				OFFSET 0.00000 -14.55658 0.00000
				CHANNELS 3 Xrotation Yrotation Zrotation
				JOINT LeftToeBase
				{
					OFFSET 0.00000 -1.25038 4.66650
					CHANNELS 3 Xrotation Yrotation Zrotation
					End Site
					{
						OFFSET 0.00000 0.00000 2.95275
					}
				}
			}
		}
	}
	JOINT RightUpLeg
	{
		OFFSET -3.00056 0.00000 0.00000
		CHANNELS 3 Xrotation Yrotation Zrotation
		JOINT RightLeg
		{
			OFFSET 0.00000 -16.49085 0.00000
			CHANNELS 3 Xrotation Yrotation Zrotation
			JOINT RightFoot
			{
				OFFSET 0.00000 -14.55658 0.00000
				CHANNELS 3 Xrotation Yrotation Zrotation
				JOINT RightToeBase
				{
					OFFSET 0.00000 -1.25038 4.66650
					CHANNELS 3 Xrotation Yrotation Zrotation
					End Site
					{
						OFFSET 0.00000 0.00000 2.95275
					}
				}
			}
		}
	}
}
MOTION
Frames: 11
Frame Time: 0.008333
 -3.5720 32.9170 -5.1094 12.0482 0.5828 -1.0383 -12.3037 3.2807 0.6483 -9.6733 -5.4087 10.7841 8.9588 21.2817 25.3200 -48.1358 12.2996 -24.7102 -28.5954 -0.0000 -22.8241 3.2861 15.2409 -12.3208 33.1476 -0.0000 26.2537 -23.8135 -9.9182 -39.4989 0.6979 -9.7789 26.9035 14.7685 -0.0000 33.0177 3.1086 -10.1544 17.1212 32.8623 0.0000 -24.3270 -7.9817 9.7644 3.8039 -1.1160 0.0000 0.0000 -7.8645 13.4190 -11.0234 12.2738 -0.0000 0.0000 -9.0962 -8.5446 -1.1470 2.5778 0.0000 0.0000 -8.8956 -0.6890 -10.9940 0.9185 0.0000 0.0000
 -3.5718 32.9169 -5.1112 12.0457 0.6231 -1.0400 -12.2822 3.2641 0.6356 -9.7292 -5.4493 10.7480 8.9835 21.2557 25.2472 -48.2974 12.5619 -24.6913 -29.3816 -0.0000 -22.7047 3.3126 15.2450 -12.4141 33.1476 -0.0000 26.2537 -23.7993 -9.9338 -39.4897 0.6276 -9.8258 26.9326 14.8569 -0.0000 33.1227 3.1781 -10.2343 17.3546 32.8623 0.0000 -24.3270 -7.9889 9.7453 3.8017 -1.1082 -0.0000 0.0000 -7.8665 13.3987 -11.0651 12.3270 0.0000 0.0000 -9.0975 -8.5358 -1.1515 2.5912 0.0000 0.0000 -8.9090 -0.7275 -11.0168 0.9583 0.0000 0.0000
 -3.5715 32.9166 -5.1136 12.0507 0.6570 -1.0446 -12.2676 3.2502 0.6167 -9.8036 -5.4930 10.7479 9.0100 21.2511 25.2028 -48.4987 12.8776 -24.7015 -30.2546 -0.0000 -22.6205 3.3522 15.4529 -12.3983 33.1476 -0.0000 26.2537 -23.7995 -9.9226 -39.4786 0.7269 -9.7778 26.9881 14.8359 -0.0000 33.0242 3.1621 -10.1917 17.3394 32.8623 0.0000 -24.3270 -8.0104 9.7433 3.8026 -1.0891 0.0000 -0.0000 -7.8628 13.3453 -11.0220 12.2238 0.0000 -0.0000 -9.1072 -8.5262 -1.1542 2.6031 0.0000 0.0000 -8.9240 -0.7613 -11.0132 0.9681 0.0000 0.0000
 -3.5717 32.9160 -5.1144 12.0490 0.6871 -1.0489 -12.2486 3.2411 0.5983 -9.8688 -5.5281 10.7410 9.0358 21.2561 25.1405 -48.7411 13.1693 -24.7007 -31.0916 -0.0000 -22.5398 3.3921 15.5621 -12.4585 33.1476 -0.0000 26.2537 -23.7778 -9.9448 -39.4474 0.7232 -9.7746 27.0140 14.8994 -0.0000 32.9881 3.1833 -10.1972 17.4404 32.8623 0.0000 -24.3270 -8.0165 9.7402 3.8041 -1.0822 0.0000 -0.0000 -7.8823 13.3448 -11.0888 12.2854 -0.0000 0.0000 -9.1064 -8.5215 -1.1537 2.6108 0.0000 0.0000 -8.9326 -0.7910 -11.0430 0.9213 0.0000 -0.0000
 -3.5711 32.9155 -5.1164 12.0493 0.7273 -1.0524 -12.2301 3.2308 0.5859 -9.9377 -5.5613 10.7065 9.0952 21.2560 25.0763 -48.9735 13.4839 -24.7135 -31.9609 -0.0000 -22.4701 3.3871 15.7185 -12.3236 33.1476 -0.0000 26.2537 -23.7729 -9.9543 -39.4227 0.7617 -9.7728 27.0342 14.9782 -0.0000 32.9929 3.1948 -10.2407 17.4303 32.8623 0.0000 -24.3270 -8.0273 9.7245 3.7999 -1.0791 -0.0000 -0.0000 -7.8775 13.3342 -11.0920 12.2966 -0.0000 0.0000 -9.1117 -8.5323 -1.1572 2.6251 0.0000 0.0000 -8.9563 -0.8289 -11.0419 0.9996 -0.0000 0.0000
 -3.5704 32.9155 -5.1194 12.0560 0.7633 -1.0531 -12.2154 3.2231 0.5653 -10.0172 -5.5852 10.7062 9.0060 21.2114 25.0770 -49.0366 13.7771 -24.7474 -32.7987 -0.0000 -22.5716 3.3939 15.6938 -12.3659 33.1476 -0.0000 26.2537 -23.7657 -9.9682 -39.3905 0.7910 -9.7788 27.0557 15.0690 -0.0000 32.9966 3.2107 -10.2762 17.4560 32.8623 0.0000 -24.3270 -8.0454 9.6741 3.7896 -1.0818 -0.0000 0.0000 -7.8571 13.3522 -11.0262 12.2532 -0.0000 0.0000 -9.1248 -8.5194 -1.1642 2.6386 -0.0000 -0.0000 -8.9570 -0.8649 -11.0644 0.9906 -0.0000 0.0000
 -3.5697 32.9147 -5.1214 12.0611 0.7882 -1.0578 -12.1967 3.2262 0.5467 -10.1109 -5.6050 10.7094 9.1762 21.2789 24.9352 -49.4322 14.0882 -24.7486 -33.8015 -0.0000 -22.5312 3.4000 16.0212 -12.1483 33.1476 -0.0000 26.2537 -23.7776 -9.9777 -39.3651 0.8903 -9.7357 27.0942 15.1199 -0.0000 32.8420 3.2318 -10.3845 17.3936 32.8623 0.0000 -24.3270 -8.0593 9.6678 3.7887 -1.0794 0.0000 -0.0000 -7.8621 13.3354 -11.0127 12.2315 -0.0000 0.0000 -9.1364 -8.5142 -1.1644 2.6509 0.0000 0.0000 -8.9683 -0.8901 -11.0801 0.9809 0.0000 0.0000
 -3.5690 32.9146 -5.1241 12.0666 0.8181 -1.0637 -12.1791 3.2264 0.5305 -10.1926 -5.6170 10.7217 9.0783 21.2336 24.9289 -49.4855 14.4261 -24.8001 -34.8427 -0.0000 -22.6222 3.3989 16.3143 -11.9382 33.1476 -0.0000 26.2537 -23.7543 -9.9984 -39.3215 0.8913 -9.7956 27.1130 15.2777 -0.0000 32.8482 3.2342 -10.4105 17.3653 32.8623 0.0000 -24.3270 -8.0765 9.6365 3.7891 -1.0702 -0.0000 0.0000 -7.8681 13.3410 -10.9942 12.2043 0.0000 0.0000 -9.1502 -8.5013 -1.1684 2.6776 0.0000 0.0000 -8.9917 -0.9590 -11.1223 0.9779 0.0000 0.0000
 -3.5686 32.9142 -5.1266 12.0780 0.8435 -1.0657 -12.1677 3.2373 0.5099 -10.2882 -5.6358 10.7255 9.1385 21.2381 24.8387 -49.7337 14.7924 -24.7964 -35.9336 -0.0000 -22.7657 3.4926 16.5016 -12.1270 33.1476 -0.0000 26.2537 -23.7565 -10.0237 -39.2858 0.8872 -9.8444 27.1375 15.4377 -0.0000 32.7838 3.2398 -10.4757 17.2930 32.8623 0.0000 -24.3270 -8.0980 9.6123 3.7897 -1.0580 0.0000 0.0000 -7.8783 13.3351 -11.0165 12.2442 0.0000 -0.0000 -9.1722 -8.5156 -1.1686 2.6873 -0.0000 -0.0000 -8.9966 -0.9445 -11.1084 0.9674 0.0000 -0.0000
 -3.5674 32.9139 -5.1289 12.0790 0.8622 -1.0638 -12.1451 3.2485 0.4882 -10.3782 -5.6574 10.7398 9.2234 21.2687 24.7242 -50.0230 15.1582 -24.8099 -37.0814 -0.0000 -22.8185 3.5369 16.8276 -12.0521 33.1476 -0.0000 26.2537 -23.7427 -10.0272 -39.2494 0.8775 -9.9956 27.1855 15.6798 -0.0000 32.8848 3.2103 -10.4588 17.1701 32.8623 0.0000 -24.3270 -8.1072 9.6109 3.7811 -1.0538 0.0000 -0.0000 -7.8674 13.3147 -10.9825 12.1890 0.0000 0.0000 -9.1781 -8.5103 -1.1750 2.6917 0.0000 -0.0000 -9.0012 -0.9622 -11.1157 0.9950 -0.0000 0.0000
 -3.5675 32.9138 -5.1296 12.0754 0.8816 -1.0716 -12.1179 3.2699 0.4787 -10.4756 -5.6893 10.7279 9.3400 21.2997 24.5951 -50.2471 15.4822 -24.8449 -38.2422 -0.0000 -22.8319 3.5468 17.0512 -11.9356 33.1476 -0.0000 26.2537 -23.7487 -10.0967 -39.1856 0.8239 -10.0126 27.1779 15.8512 -0.0000 32.7517 3.2101 -10.4805 17.1362 32.8623 0.0000 -24.3270 -8.1123 9.6022 3.7861 -1.0477 0.0000 -0.0000 -7.8689 13.3082 -10.9820 12.2065 0.0000 -0.0000 -9.1990 -8.5601 -1.1706 2.7474 -0.0000 -0.0000 -9.0328 -0.9419 -11.1455 1.0303 0.0000 -0.0000
